<svg width="1920" height="551" viewBox="0 0 1920 551" fill="none" xmlns="http://www.w3.org/2000/svg">
<path opacity="0.3" fill-rule="evenodd" clip-rule="evenodd" d="M-245.022 563.385H-537.018L-366.564 451.983H-108.709L-245.022 563.385ZM-102.573 446.968H-358.892L-226.181 360.234H3.5564L-102.573 446.968ZM-101.78 451.983L-238.094 563.385H55.4664L157.777 451.983H-101.78ZM356.232 563.385H61.085L163.395 451.983H424.421L356.232 563.385ZM360.679 563.385H656.476L690.567 451.983H428.868L360.679 563.385ZM956.554 563.385H660.042L694.133 451.983H956.554V563.385ZM959.773 563.385H1256.23L1222.14 451.983H959.773V563.385ZM1555.64 563.385H1259.8L1225.71 451.983H1487.45L1555.64 563.385ZM1560.09 563.385H1854.91L1752.64 451.983H1491.9L1560.09 563.385ZM2154.16 563.385H1860.53L1758.26 451.983H2017.79L2154.16 563.385ZM2161.09 563.385H2453.27L2282.81 451.983H2024.72L2161.09 563.385ZM2018.58 446.968H2275.14L2142.43 360.234H1912.41L2018.58 446.968ZM2011.65 446.968L1905.48 360.234H1674.03L1753.66 446.968H2011.65ZM1899.34 355.22H1669.43L1605.93 286.054H1814.67L1899.34 355.22ZM1906.27 355.22H2134.76L2028.93 286.054H1821.6L1906.27 355.22ZM1815.46 281.04H2021.26L1935.31 224.863H1746.69L1815.46 281.04ZM1808.53 281.04H1601.33L1549.75 224.863H1739.76L1808.53 281.04ZM1733.62 219.848H1545.15L1502.6 173.5H1676.89L1733.62 219.848ZM1740.56 219.848L1683.82 173.5H1856.72L1927.64 219.848H1740.56ZM1677.68 168.486H1849.05L1789.84 129.791H1630.31L1677.68 168.486ZM1670.75 168.486L1623.38 129.791H1462.47L1498 168.486H1670.75ZM1624.17 124.777H1782.17L1732.2 92.118H1584.2L1624.17 124.777ZM1577.26 92.118L1617.24 124.777H1457.87L1427.89 92.118H1577.26ZM1571.13 87.1036H1423.28L1397.79 59.3399H1537.14L1571.13 87.1036ZM1578.06 87.1036H1724.53L1682.05 59.3399H1544.07L1578.06 87.1036ZM1537.93 54.3255H1674.38L1637.98 30.537H1508.81L1537.93 54.3255ZM1501.88 30.537H1371.35L1393.19 54.3255H1531L1501.88 30.537ZM1495.74 25.5226H1366.75L1347.95 5.04968H1470.68L1495.74 25.5226ZM1502.67 25.5226H1630.31L1598.98 5.04968H1477.61L1502.67 25.5226ZM1668.41 360.234L1748.04 446.968H1488.83L1435.74 360.234H1668.41ZM1432.67 355.22H1663.81L1600.31 286.054H1390.34L1432.67 355.22ZM1387.27 281.04H1595.71L1544.14 224.863H1352.88L1387.27 281.04ZM1349.81 219.848H1539.53L1496.98 173.5H1321.44L1349.81 219.848ZM1318.37 168.486H1492.38L1456.86 129.791H1294.69L1318.37 168.486ZM1291.62 124.777H1452.25L1422.27 92.118H1271.63L1291.62 124.777ZM1392.18 59.3399L1417.67 87.1036H1268.56L1251.57 59.3399H1392.18ZM1387.57 54.3255L1365.74 30.537H1233.94L1248.5 54.3255H1387.57ZM1361.13 25.5226L1342.34 5.04968H1218.33L1230.87 25.5226H1361.13ZM1431.29 360.234H1197.63L1224.17 446.968H1484.38L1431.29 360.234ZM1428.23 355.22H1196.1L1174.93 286.054H1385.89L1428.23 355.22ZM1382.82 281.04L1348.43 224.863H1156.21L1173.4 281.04H1382.82ZM1317 173.5L1345.37 219.848H1154.67L1140.49 173.5H1317ZM1290.24 129.791L1313.93 168.486H1138.95L1127.11 129.791H1290.24ZM1267.18 92.118L1287.17 124.777H1125.58L1115.58 92.118H1267.18ZM1264.11 87.1036H1114.05L1105.55 59.3399H1247.12L1264.11 87.1036ZM1244.05 54.3255H1104.02L1096.74 30.537H1229.49L1244.05 54.3255ZM1226.42 25.5226H1095.2L1088.94 5.04968H1213.89L1226.42 25.5226ZM959.773 360.234H1194.07L1220.61 446.968H959.773V360.234ZM959.773 355.22H1192.53L1171.37 286.054H959.773V355.22ZM959.773 224.863H1152.64L1169.83 281.04H959.773V224.863ZM959.773 219.848H1151.11L1136.92 173.5H959.773V219.848ZM959.773 129.791H1123.55L1135.39 168.486H959.773V129.791ZM959.773 124.777H1122.01L1112.02 92.118H959.773V124.777ZM1101.99 59.3399L1110.48 87.1036H959.773V59.3399H1101.99ZM1100.45 54.3255L1093.17 30.537H959.773V54.3255H1100.45ZM1091.64 25.5226L1085.37 5.04968H959.773V25.5226H1091.64ZM956.554 360.234H722.209L695.667 446.968H956.554V360.234ZM956.554 355.22H723.744L744.91 286.054H956.554V355.22ZM956.554 224.863H763.635L746.444 281.04H956.554V224.863ZM956.554 219.848H765.17L779.353 173.5H956.554V219.848ZM956.554 129.791H792.729L780.888 168.486H956.554V129.791ZM956.554 124.777H794.263L804.258 92.118H956.554V124.777ZM956.554 59.3399H814.288L805.792 87.1036H956.554V59.3399ZM956.554 30.537V54.3255H815.823L823.103 30.537H956.554ZM956.554 5.04968V25.5226H824.637L830.902 5.04968H956.554ZM485.027 360.234H718.644L692.101 446.968H431.938L485.027 360.234ZM488.097 355.22H720.178L741.344 286.054H530.433L488.097 355.22ZM761.604 219.848L775.787 173.5H599.327L570.957 219.848H761.604ZM777.322 168.486L789.163 129.791H626.081L602.396 168.486H777.322ZM790.698 124.777L800.692 92.118H649.141L629.151 124.777H790.698ZM802.226 87.1036L810.723 59.3399H669.204L652.21 87.1036H802.226ZM812.257 54.3255L819.537 30.537H686.834L672.274 54.3255H812.257ZM821.071 25.5226L827.336 5.04968H702.435L689.904 25.5226H821.071ZM742.879 281.04L760.07 224.863H567.888L533.502 281.04H742.879ZM480.58 360.234H247.656L168 446.968H427.49L480.58 360.234ZM525.985 286.054L483.649 355.22H252.261L315.782 286.054H525.985ZM563.441 224.863L529.055 281.04H320.387L371.98 224.863H563.441ZM594.879 173.5L566.51 219.848H376.585L419.15 173.5H594.879ZM621.634 129.791L597.949 168.486H423.755L459.292 129.791H621.634ZM644.693 92.118L624.703 124.777H463.897L493.891 92.118H644.693ZM664.757 59.3399L647.763 87.1036H498.496L523.994 59.3399H664.757ZM682.387 30.537L667.826 54.3255H528.599L550.446 30.537H682.387ZM697.988 5.04968L685.456 25.5226H555.051L573.853 5.04968H697.988ZM246.643 355.22L310.164 286.054H101.253L16.6207 355.22H246.643ZM314.769 281.04L366.361 224.863H176.128L107.389 281.04H314.769ZM370.966 219.848L413.532 173.5H238.976L182.263 219.848H370.966ZM418.137 168.486L453.674 129.791H292.459L245.111 168.486H418.137ZM458.279 124.777L488.272 92.118H338.557L298.595 124.777H458.279ZM492.878 87.1036L518.375 59.3399H378.664L344.692 87.1036H492.878ZM522.981 54.3255L544.828 30.537H413.908L384.8 54.3255H522.981ZM549.433 25.5226L568.235 5.04968H445.095L420.044 25.5226H549.433ZM162.382 446.968L242.038 360.234H10.485L-95.6444 446.968H162.382ZM169.199 224.863L100.46 281.04H-105.008L-19.0527 224.863H169.199ZM232.047 173.5L175.335 219.848H-11.3802L59.5358 173.5H232.047ZM285.531 129.791L238.183 168.486H67.2082L126.414 129.791H285.531ZM331.628 92.118L291.666 124.777H134.087L184.057 92.118H331.628ZM371.736 59.3399L337.764 87.1036H191.73L234.21 59.3399H371.736ZM406.98 30.537L377.872 54.3255H241.883L278.281 30.537H406.98ZM438.166 5.04968L413.115 25.5226H285.953L317.279 5.04968H438.166ZM444.302 0.0352982H316.624L-553.003 568.399H2469.26L1599.92 0.235865L1599.62 0.0352982H444.357L444.345 0L444.302 0.0352982ZM94.3245 286.054L9.69208 355.22H-218.509L-112.68 286.054H94.3245Z" fill="url(#paint0_linear_450_1175)" fill-opacity="0.5"/>
<defs>
<linearGradient id="paint0_linear_450_1175" x1="958.13" y1="0" x2="958.13" y2="593.368" gradientUnits="userSpaceOnUse">
<stop stop-color="#7A4C3C" stop-opacity="0"/>
<stop offset="0.9999" stop-color="#F9C9B8"/>
</linearGradient>
</defs>
</svg>
